# xmcd
#
# Track frame offsets:
#	182
#	9985
#	19280
#	33082
#	42830
#	55055
#	67882
#	78682
#	92182
#	104482
#	124732
#	133960
#	145355
#	156305
#
# Disc length: 2259 seconds
#
# Revision: 1
# Processed by: cddbd v1.4b41PL1 Copyright (c) Steve Scherf et al.
# Submitted via: audiograbber 1.80
#
DISCID=be08d10e
DTITLE=Bill and Audrey - Looking Back To See
DYEAR=1900
DGENRE=
TTITLE0=Looking Back To See
TTITLE1=Sugar Daddy
TTITLE2=Kiss The Children
TTITLE3=Honky Tonk Fool
TTITLE4=Searching
TTITLE5=We'll Sweep Out the Ashes In The Morning
TTITLE6=It Was the Whiskey Talking (Not Me)
TTITLE7=Road of Regret
TTITLE8=Losing Side Of Love
TTITLE9=You Opened My Eyes
TTITLE10=Honky Tonk Merry Go Round
TTITLE11=You Are My Sunshine
TTITLE12=What's In Our Hearts
TTITLE13=Meet Me Up There
EXTD=Bill Chambers is kasey Chambers' father.
EXTT0=
EXTT1=
EXTT2=
EXTT3=
EXTT4=
EXTT5=
EXTT6=
EXTT7=
EXTT8=
EXTT9=
EXTT10=
EXTT11=
EXTT12=
EXTT13=
PLAYORDER=
